<svg width="840" height="305" viewBox="0 0 840 305" fill="none" xmlns="http://www.w3.org/2000/svg">
<rect width="840" height="305" fill="white"/>
<path d="M146.962 167.566L73 135.868L102.434 236.245L174.887 277L146.962 167.566Z" fill="#7C3AED"/>
<path d="M241.302 215.113L212.245 100.774L146.962 167.566L241.302 215.113Z" fill="#5B21B6"/>
<path d="M212.245 100.774L115.264 37L73 135.868L146.962 167.566L212.245 100.774Z" fill="#8B5CF6"/>
<path d="M300.192 169.232C295.44 169.232 291.245 168.381 287.608 166.68C283.971 164.979 281.125 162.544 279.072 159.376C277.019 156.208 275.992 152.395 275.992 147.936V145.472H287.432V147.936C287.432 151.632 288.576 154.419 290.864 156.296C293.152 158.115 296.261 159.024 300.192 159.024C304.181 159.024 307.144 158.232 309.08 156.648C311.075 155.064 312.072 153.04 312.072 150.576C312.072 148.875 311.573 147.496 310.576 146.44C309.637 145.384 308.229 144.533 306.352 143.888C304.533 143.184 302.304 142.539 299.664 141.952L297.64 141.512C293.416 140.573 289.779 139.4 286.728 137.992C283.736 136.525 281.419 134.619 279.776 132.272C278.192 129.925 277.4 126.875 277.4 123.12C277.4 119.365 278.28 116.168 280.04 113.528C281.859 110.829 284.381 108.776 287.608 107.368C290.893 105.901 294.736 105.168 299.136 105.168C303.536 105.168 307.437 105.931 310.84 107.456C314.301 108.923 317 111.152 318.936 114.144C320.931 117.077 321.928 120.773 321.928 125.232V127.872H310.488V125.232C310.488 122.885 310.019 121.008 309.08 119.6C308.2 118.133 306.909 117.077 305.208 116.432C303.507 115.728 301.483 115.376 299.136 115.376C295.616 115.376 293.005 116.051 291.304 117.4C289.661 118.691 288.84 120.48 288.84 122.768C288.84 124.293 289.221 125.584 289.984 126.64C290.805 127.696 292.008 128.576 293.592 129.28C295.176 129.984 297.2 130.6 299.664 131.128L301.688 131.568C306.088 132.507 309.901 133.709 313.128 135.176C316.413 136.643 318.965 138.579 320.784 140.984C322.603 143.389 323.512 146.469 323.512 150.224C323.512 153.979 322.544 157.293 320.608 160.168C318.731 162.984 316.032 165.213 312.512 166.856C309.051 168.44 304.944 169.232 300.192 169.232ZM330.767 168V124.352H341.855V168H330.767ZM336.311 119.248C334.317 119.248 332.615 118.603 331.207 117.312C329.858 116.021 329.183 114.32 329.183 112.208C329.183 110.096 329.858 108.395 331.207 107.104C332.615 105.813 334.317 105.168 336.311 105.168C338.365 105.168 340.066 105.813 341.415 107.104C342.765 108.395 343.439 110.096 343.439 112.208C343.439 114.32 342.765 116.021 341.415 117.312C340.066 118.603 338.365 119.248 336.311 119.248ZM369.102 168C366.228 168 363.881 167.12 362.062 165.36C360.302 163.541 359.422 161.136 359.422 158.144V133.504H348.51V124.352H359.422V110.8H370.51V124.352H382.478V133.504H370.51V156.208C370.51 157.968 371.332 158.848 372.974 158.848H381.422V168H369.102ZM409.096 169.232C404.755 169.232 400.912 168.323 397.568 166.504C394.283 164.627 391.701 162.016 389.824 158.672C388.005 155.269 387.096 151.28 387.096 146.704V145.648C387.096 141.072 388.005 137.112 389.824 133.768C391.643 130.365 394.195 127.755 397.48 125.936C400.765 124.059 404.579 123.12 408.92 123.12C413.203 123.12 416.928 124.088 420.096 126.024C423.264 127.901 425.728 130.541 427.488 133.944C429.248 137.288 430.128 141.189 430.128 145.648V149.432H398.36C398.477 152.424 399.592 154.859 401.704 156.736C403.816 158.613 406.397 159.552 409.448 159.552C412.557 159.552 414.845 158.877 416.312 157.528C417.779 156.179 418.893 154.683 419.656 153.04L428.72 157.792C427.899 159.317 426.696 160.989 425.112 162.808C423.587 164.568 421.533 166.093 418.952 167.384C416.371 168.616 413.085 169.232 409.096 169.232ZM398.448 141.16H418.864C418.629 138.637 417.603 136.613 415.784 135.088C414.024 133.563 411.707 132.8 408.832 132.8C405.84 132.8 403.464 133.563 401.704 135.088C399.944 136.613 398.859 138.637 398.448 141.16ZM437.885 168V106.4H449.501V157.44H477.661V168H437.885ZM497.724 169.232C494.615 169.232 491.828 168.704 489.364 167.648C486.9 166.533 484.935 164.949 483.468 162.896C482.06 160.784 481.356 158.232 481.356 155.24C481.356 152.248 482.06 149.755 483.468 147.76C484.935 145.707 486.93 144.181 489.452 143.184C492.034 142.128 494.967 141.6 498.252 141.6H510.22V139.136C510.22 137.083 509.575 135.411 508.284 134.12C506.994 132.771 504.94 132.096 502.124 132.096C499.367 132.096 497.314 132.741 495.964 134.032C494.615 135.264 493.735 136.877 493.324 138.872L483.116 135.44C483.82 133.211 484.935 131.187 486.46 129.368C488.044 127.491 490.127 125.995 492.708 124.88C495.348 123.707 498.546 123.12 502.3 123.12C508.05 123.12 512.596 124.557 515.94 127.432C519.284 130.307 520.957 134.472 520.957 139.928V156.208C520.957 157.968 521.778 158.848 523.42 158.848H526.941V168H519.548C517.378 168 515.588 167.472 514.18 166.416C512.772 165.36 512.068 163.952 512.068 162.192V162.104H510.396C510.162 162.808 509.634 163.747 508.812 164.92C507.991 166.035 506.7 167.032 504.94 167.912C503.18 168.792 500.775 169.232 497.724 169.232ZM499.66 160.256C502.77 160.256 505.292 159.405 507.228 157.704C509.223 155.944 510.22 153.627 510.22 150.752V149.872H499.044C496.991 149.872 495.378 150.312 494.204 151.192C493.031 152.072 492.444 153.304 492.444 154.888C492.444 156.472 493.06 157.763 494.292 158.76C495.524 159.757 497.314 160.256 499.66 160.256ZM548.716 168.704C545.314 168.704 542.322 167.941 539.74 166.416C537.218 164.832 535.252 162.661 533.844 159.904C532.436 157.147 531.732 153.979 531.732 150.4V124.352H542.82V149.52C542.82 152.805 543.612 155.269 545.196 156.912C546.839 158.555 549.156 159.376 552.148 159.376C555.551 159.376 558.191 158.261 560.068 156.032C561.946 153.744 562.884 150.576 562.884 146.528V124.352H573.972V168H563.06V162.28H561.476C560.772 163.747 559.452 165.184 557.516 166.592C555.58 168 552.647 168.704 548.716 168.704ZM584.551 168V124.352H595.463V130.072H597.047C597.751 128.547 599.071 127.109 601.007 125.76C602.943 124.352 605.876 123.648 609.807 123.648C613.21 123.648 616.172 124.44 618.695 126.024C621.276 127.549 623.271 129.691 624.679 132.448C626.087 135.147 626.791 138.315 626.791 141.952V168H615.703V142.832C615.703 139.547 614.882 137.083 613.239 135.44C611.655 133.797 609.367 132.976 606.375 132.976C602.972 132.976 600.332 134.12 598.455 136.408C596.578 138.637 595.639 141.776 595.639 145.824V168H584.551ZM657.522 169.232C653.298 169.232 649.455 168.352 645.994 166.592C642.591 164.832 639.892 162.28 637.898 158.936C635.903 155.592 634.906 151.544 634.906 146.792V145.56C634.906 140.808 635.903 136.76 637.898 133.416C639.892 130.072 642.591 127.52 645.994 125.76C649.455 124 653.298 123.12 657.522 123.12C661.687 123.12 665.266 123.853 668.258 125.32C671.25 126.787 673.655 128.811 675.474 131.392C677.351 133.915 678.583 136.789 679.17 140.016L668.434 142.304C668.199 140.544 667.671 138.96 666.85 137.552C666.028 136.144 664.855 135.029 663.33 134.208C661.863 133.387 660.015 132.976 657.786 132.976C655.556 132.976 653.532 133.475 651.714 134.472C649.954 135.411 648.546 136.848 647.49 138.784C646.492 140.661 645.994 142.979 645.994 145.736V146.616C645.994 149.373 646.492 151.72 647.49 153.656C648.546 155.533 649.954 156.971 651.714 157.968C653.532 158.907 655.556 159.376 657.786 159.376C661.13 159.376 663.652 158.525 665.354 156.824C667.114 155.064 668.228 152.776 668.698 149.96L679.434 152.512C678.671 155.621 677.351 158.467 675.474 161.048C673.655 163.571 671.25 165.565 668.258 167.032C665.266 168.499 661.687 169.232 657.522 169.232ZM686.82 168V106.4H697.908V129.72H699.492C699.961 128.781 700.695 127.843 701.692 126.904C702.689 125.965 704.009 125.203 705.652 124.616C707.353 123.971 709.495 123.648 712.076 123.648C715.479 123.648 718.441 124.44 720.964 126.024C723.545 127.549 725.54 129.691 726.948 132.448C728.356 135.147 729.06 138.315 729.06 141.952V168H717.972V142.832C717.972 139.547 717.151 137.083 715.508 135.44C713.924 133.797 711.636 132.976 708.644 132.976C705.241 132.976 702.601 134.12 700.724 136.408C698.847 138.637 697.908 141.776 697.908 145.824V168H686.82Z" fill="#0A0A1A"/>
<path d="M405.708 230.392C404.233 230.392 402.927 230.131 401.788 229.608C400.649 229.085 399.753 228.32 399.1 227.312C398.465 226.285 398.148 225.044 398.148 223.588V222.888H401.144V223.588C401.144 224.969 401.555 226.005 402.376 226.696C403.216 227.387 404.327 227.732 405.708 227.732C407.108 227.732 408.163 227.443 408.872 226.864C409.581 226.267 409.936 225.501 409.936 224.568C409.936 223.952 409.768 223.448 409.432 223.056C409.096 222.664 408.62 222.356 408.004 222.132C407.388 221.889 406.651 221.665 405.792 221.46L404.756 221.208C403.505 220.909 402.413 220.545 401.48 220.116C400.565 219.668 399.856 219.08 399.352 218.352C398.848 217.624 398.596 216.691 398.596 215.552C398.596 214.395 398.876 213.405 399.436 212.584C400.015 211.763 400.808 211.128 401.816 210.68C402.824 210.232 404.009 210.008 405.372 210.008C406.735 210.008 407.948 210.241 409.012 210.708C410.095 211.175 410.944 211.865 411.56 212.78C412.176 213.695 412.484 214.843 412.484 216.224V217.232H409.488V216.224C409.488 215.384 409.311 214.703 408.956 214.18C408.62 213.657 408.144 213.275 407.528 213.032C406.912 212.789 406.193 212.668 405.372 212.668C404.177 212.668 403.244 212.92 402.572 213.424C401.919 213.909 401.592 214.591 401.592 215.468C401.592 216.065 401.732 216.56 402.012 216.952C402.311 217.325 402.74 217.633 403.3 217.876C403.86 218.119 404.56 218.333 405.4 218.52L406.436 218.772C407.705 219.052 408.825 219.416 409.796 219.864C410.767 220.293 411.532 220.881 412.092 221.628C412.652 222.375 412.932 223.336 412.932 224.512C412.932 225.688 412.633 226.715 412.036 227.592C411.457 228.469 410.627 229.16 409.544 229.664C408.461 230.149 407.183 230.392 405.708 230.392ZM436.844 230V213.144H430.824V210.4H445.888V213.144H439.868V230H436.844ZM472.765 230.392C471.216 230.392 469.881 230.112 468.761 229.552C467.66 228.992 466.801 228.189 466.185 227.144C465.588 226.08 465.289 224.792 465.289 223.28V210.4H468.341V223.364C468.341 224.745 468.724 225.809 469.489 226.556C470.254 227.303 471.346 227.676 472.765 227.676C474.184 227.676 475.276 227.303 476.041 226.556C476.806 225.809 477.189 224.745 477.189 223.364V210.4H480.213V223.28C480.213 224.792 479.914 226.08 479.317 227.144C478.72 228.189 477.861 228.992 476.741 229.552C475.621 230.112 474.296 230.392 472.765 230.392ZM500.232 230V227.312H502.864V213.088H500.232V210.4H508.072C510.685 210.4 512.682 211.063 514.064 212.388C515.464 213.713 516.164 215.711 516.164 218.38V222.048C516.164 224.717 515.464 226.715 514.064 228.04C512.682 229.347 510.685 230 508.072 230H500.232ZM505.916 227.256H508.1C509.798 227.256 511.058 226.827 511.88 225.968C512.701 225.109 513.112 223.831 513.112 222.132V218.268C513.112 216.551 512.701 215.272 511.88 214.432C511.058 213.592 509.798 213.172 508.1 213.172H505.916V227.256ZM536.381 230V210.4H539.405V230H536.381ZM567.654 230.392C565.246 230.392 563.333 229.72 561.914 228.376C560.495 227.013 559.786 225.053 559.786 222.496V217.904C559.786 215.347 560.495 213.396 561.914 212.052C563.333 210.689 565.246 210.008 567.654 210.008C570.062 210.008 571.975 210.689 573.394 212.052C574.831 213.396 575.55 215.347 575.55 217.904V222.496C575.55 225.053 574.831 227.013 573.394 228.376C571.975 229.72 570.062 230.392 567.654 230.392ZM567.654 227.676C569.203 227.676 570.398 227.228 571.238 226.332C572.078 225.417 572.498 224.176 572.498 222.608V217.792C572.498 216.224 572.078 214.992 571.238 214.096C570.398 213.181 569.203 212.724 567.654 212.724C566.142 212.724 564.957 213.181 564.098 214.096C563.239 214.992 562.81 216.224 562.81 217.792V222.608C562.81 224.176 563.239 225.417 564.098 226.332C564.957 227.228 566.142 227.676 567.654 227.676ZM602.594 230.392C601.119 230.392 599.813 230.131 598.674 229.608C597.535 229.085 596.639 228.32 595.986 227.312C595.351 226.285 595.034 225.044 595.034 223.588V222.888H598.03V223.588C598.03 224.969 598.441 226.005 599.262 226.696C600.102 227.387 601.213 227.732 602.594 227.732C603.994 227.732 605.049 227.443 605.758 226.864C606.467 226.267 606.822 225.501 606.822 224.568C606.822 223.952 606.654 223.448 606.318 223.056C605.982 222.664 605.506 222.356 604.89 222.132C604.274 221.889 603.537 221.665 602.678 221.46L601.642 221.208C600.391 220.909 599.299 220.545 598.366 220.116C597.451 219.668 596.742 219.08 596.238 218.352C595.734 217.624 595.482 216.691 595.482 215.552C595.482 214.395 595.762 213.405 596.322 212.584C596.901 211.763 597.694 211.128 598.702 210.68C599.71 210.232 600.895 210.008 602.258 210.008C603.621 210.008 604.834 210.241 605.898 210.708C606.981 211.175 607.83 211.865 608.446 212.78C609.062 213.695 609.37 214.843 609.37 216.224V217.232H606.374V216.224C606.374 215.384 606.197 214.703 605.842 214.18C605.506 213.657 605.03 213.275 604.414 213.032C603.798 212.789 603.079 212.668 602.258 212.668C601.063 212.668 600.13 212.92 599.458 213.424C598.805 213.909 598.478 214.591 598.478 215.468C598.478 216.065 598.618 216.56 598.898 216.952C599.197 217.325 599.626 217.633 600.186 217.876C600.746 218.119 601.446 218.333 602.286 218.52L603.322 218.772C604.591 219.052 605.711 219.416 606.682 219.864C607.653 220.293 608.418 220.881 608.978 221.628C609.538 222.375 609.818 223.336 609.818 224.512C609.818 225.688 609.519 226.715 608.922 227.592C608.343 228.469 607.513 229.16 606.43 229.664C605.347 230.149 604.069 230.392 602.594 230.392Z" fill="#0A0A1A"/>
</svg>
